<?xml version="1.0" encoding="UTF-8"?><svg xmlns="http://www.w3.org/2000/svg" xmlns:xlink="http://www.w3.org/1999/xlink" width="82.5" zoomAndPan="magnify" viewBox="0 0 82.5 60" height="60" preserveAspectRatio="xMidYMid meet" version="1.0"><defs><clipPath id="clip-0"><path d="M 13.695312 0.179688 L 68.445312 0.179688 L 68.445312 55.679688 L 13.695312 55.679688 Z M 13.695312 0.179688 " clip-rule="nonzero"/></clipPath><clipPath id="clip-1"><path d="M 32.191406 21 L 50.191406 21 L 50.191406 30 L 32.191406 30 Z M 32.191406 21 " clip-rule="nonzero"/></clipPath><clipPath id="clip-2"><path d="M 43 35 L 49 35 L 49 37.492188 L 43 37.492188 Z M 43 35 " clip-rule="nonzero"/></clipPath><clipPath id="clip-3"><path d="M 34 35 L 39 35 L 39 37.492188 L 34 37.492188 Z M 34 35 " clip-rule="nonzero"/></clipPath><clipPath id="clip-4"><path d="M 38 18.742188 L 44 18.742188 L 44 23 L 38 23 Z M 38 18.742188 " clip-rule="nonzero"/></clipPath></defs><path fill="rgb(93.328857%, 42.349243%, 30.198669%)" d="M 58.179688 8.558594 L 58.210938 8.570312 L 58.203125 8.5625 L 58.171875 8.539062 C 58.183594 8.550781 58.171875 8.546875 58.179688 8.558594 " fill-opacity="1" fill-rule="nonzero"/><g clip-path="url(#clip-0)"><path fill="rgb(93.328857%, 42.349243%, 30.198669%)" d="M 42.339844 50.226562 C 42.371094 50.222656 42.402344 50.21875 42.429688 50.214844 C 42.910156 50.167969 43.460938 50.109375 44.015625 50.054688 C 44.105469 50.035156 44.199219 50.019531 44.289062 50.003906 C 45.339844 49.988281 46.371094 49.902344 47.382812 49.75 C 47.253906 49.804688 47.125 49.859375 46.992188 49.921875 C 46.835938 49.988281 46.683594 50.058594 46.527344 50.125 C 45.136719 50.277344 43.738281 50.3125 42.339844 50.226562 Z M 26.554688 42.867188 C 25.757812 42.3125 25.164062 41.746094 24.359375 40.953125 C 24.082031 40.699219 23.8125 40.1875 23.671875 39.890625 C 23.535156 39.585938 23.53125 39.46875 23.660156 39.550781 C 23.828125 39.664062 24.0625 39.898438 24.40625 40.355469 C 24.835938 40.871094 25.3125 41.34375 25.75 41.832031 C 26.421875 42.515625 27.019531 42.910156 27.328125 43.050781 C 27.382812 43.074219 27.445312 43.113281 27.515625 43.152344 L 27.566406 43.207031 C 27.828125 43.5 28.136719 43.742188 28.421875 44.011719 L 28.875 44.425781 C 28.65625 44.308594 28.378906 44.128906 28.085938 43.929688 C 27.4375 43.535156 26.921875 43.039062 26.554688 42.867188 Z M 23.078125 39.207031 C 22.914062 39.082031 22.691406 38.710938 22.554688 38.371094 C 22.507812 38.265625 22.511719 38.21875 22.492188 38.144531 C 22.539062 38.191406 22.578125 38.214844 22.632812 38.292969 C 22.792969 38.5 22.929688 38.792969 23.054688 39.015625 C 23.140625 39.183594 23.152344 39.277344 23.078125 39.207031 Z M 22.027344 38.6875 C 21.96875 38.585938 21.910156 38.4375 21.863281 38.328125 C 21.851562 38.296875 21.878906 38.316406 21.890625 38.3125 C 21.957031 38.386719 22.050781 38.523438 22.167969 38.769531 C 22.195312 38.832031 22.222656 38.902344 22.226562 38.929688 C 22.246094 39.023438 22.15625 38.921875 22.027344 38.6875 Z M 20.96875 37.085938 C 20.933594 37.019531 20.835938 36.765625 20.820312 36.691406 C 20.800781 36.613281 20.824219 36.589844 20.859375 36.648438 C 20.929688 36.757812 21.019531 36.949219 21.105469 37.105469 C 21.128906 37.238281 21.195312 37.421875 21.179688 37.402344 C 21.117188 37.347656 21.046875 37.234375 20.96875 37.085938 Z M 40.527344 1.859375 C 41.09375 1.808594 41.710938 1.792969 42.324219 1.761719 C 42.417969 1.757812 42.613281 1.777344 42.742188 1.789062 C 42.792969 1.792969 42.78125 1.808594 42.800781 1.820312 C 42.75 1.835938 42.738281 1.859375 42.636719 1.871094 C 41.953125 1.972656 41.167969 1.976562 40.230469 2.09375 C 40.167969 2.101562 40.03125 2.109375 39.996094 2.109375 C 39.90625 2.101562 39.78125 2.089844 39.789062 2.074219 C 39.816406 2.007812 40.101562 1.929688 40.527344 1.859375 Z M 40.957031 1.601562 C 41 1.605469 41.066406 1.609375 41.121094 1.613281 C 41.09375 1.617188 41.078125 1.628906 41.035156 1.628906 C 40.996094 1.625 40.929688 1.621094 40.875 1.617188 C 40.902344 1.613281 40.917969 1.601562 40.957031 1.601562 Z M 50.652344 4.253906 C 50.691406 4.261719 50.785156 4.304688 50.855469 4.332031 C 50.878906 4.351562 50.933594 4.382812 50.917969 4.386719 C 50.902344 4.386719 50.824219 4.367188 50.773438 4.347656 C 50.566406 4.257812 50.515625 4.21875 50.652344 4.253906 Z M 52.265625 5.09375 C 52.367188 5.136719 52.519531 5.21875 52.664062 5.304688 C 52.609375 5.285156 52.550781 5.261719 52.492188 5.238281 C 52.175781 5.117188 51.859375 4.996094 51.550781 4.878906 C 51.785156 4.945312 52.023438 5.007812 52.265625 5.09375 Z M 53.859375 5.664062 C 54.160156 5.800781 54.433594 5.972656 54.648438 6.167969 C 54.703125 6.214844 54.753906 6.257812 54.800781 6.300781 C 54.675781 6.242188 54.550781 6.183594 54.425781 6.121094 C 54.183594 6 53.941406 5.882812 53.699219 5.765625 C 53.636719 5.71875 53.578125 5.675781 53.53125 5.632812 C 53.355469 5.488281 53.496094 5.488281 53.859375 5.664062 Z M 56.335938 6.957031 C 56.574219 7.132812 56.816406 7.3125 57.066406 7.5 C 57.332031 7.699219 57.582031 7.921875 57.792969 8.128906 C 57.890625 8.230469 57.980469 8.320312 58.070312 8.414062 L 57.972656 8.34375 L 57.402344 7.90625 C 57.210938 7.761719 57.023438 7.613281 56.8125 7.492188 C 56.558594 7.335938 56.285156 7.167969 56.007812 7 C 55.945312 6.929688 55.882812 6.863281 55.828125 6.796875 C 55.671875 6.609375 55.839844 6.664062 56.335938 6.957031 Z M 57.875 7.882812 C 57.9375 7.914062 58.089844 8.027344 58.191406 8.113281 C 58.402344 8.28125 58.476562 8.441406 58.363281 8.355469 C 58.304688 8.3125 58.15625 8.199219 58.050781 8.117188 C 57.851562 7.945312 57.75 7.8125 57.875 7.882812 Z M 59.882812 9.449219 C 60.332031 9.832031 60.699219 10.320312 61.117188 10.753906 L 60.648438 10.46875 C 60.304688 10.101562 60.046875 9.851562 59.601562 9.433594 C 59.519531 9.355469 59.382812 9.183594 59.371094 9.152344 C 59.328125 9.023438 59.554688 9.152344 59.882812 9.449219 Z M 61.160156 10.800781 C 61.253906 10.753906 61.695312 11.042969 62.230469 11.765625 C 62.527344 12.15625 62.792969 12.550781 63.074219 12.992188 C 63.226562 13.21875 63.351562 13.386719 63.410156 13.449219 C 63.453125 13.480469 63.480469 13.488281 63.503906 13.492188 C 63.570312 13.5 63.699219 13.636719 63.925781 14.023438 C 64.300781 14.6875 64.664062 15.167969 64.886719 15.527344 C 64.917969 15.574219 65.027344 15.824219 65.070312 15.945312 C 65.117188 16.070312 65.148438 16.203125 65.144531 16.238281 C 65.132812 16.339844 65.085938 16.363281 65.074219 16.464844 C 65.050781 16.652344 64.972656 16.648438 64.597656 15.824219 C 64.484375 15.566406 64.355469 15.371094 64.230469 15.222656 C 64.152344 15.125 64.09375 15.0625 64.03125 15 C 63.808594 14.628906 63.589844 14.257812 63.351562 13.898438 L 62.308594 12.507812 L 62.046875 12.164062 L 61.753906 11.84375 L 61.664062 11.746094 C 61.640625 11.585938 61.476562 11.261719 61.15625 10.796875 Z M 65.792969 17.171875 C 65.859375 17.277344 65.957031 17.445312 66.023438 17.636719 C 66.046875 17.703125 66.085938 17.890625 66.117188 18.019531 C 66.097656 18.105469 66.03125 18 65.910156 17.664062 C 65.871094 17.550781 65.800781 17.335938 65.773438 17.257812 C 65.75 17.171875 65.757812 17.121094 65.792969 17.171875 Z M 55.332031 6.761719 L 55.1875 6.675781 C 54.933594 6.535156 54.675781 6.40625 54.414062 6.277344 C 54.253906 6.144531 54.078125 6.023438 53.910156 5.910156 C 54.261719 6.078125 54.605469 6.25 54.945312 6.429688 C 55.058594 6.535156 55.179688 6.640625 55.332031 6.761719 Z M 59.253906 9.367188 C 59.484375 9.542969 59.710938 9.75 59.941406 9.984375 C 59.714844 9.78125 59.484375 9.574219 59.253906 9.367188 Z M 61.175781 11.902344 C 61.304688 12.046875 61.441406 12.207031 61.585938 12.378906 C 61.5 12.285156 61.382812 12.148438 61.289062 12.046875 C 61.21875 11.96875 61.144531 11.890625 61.074219 11.808594 C 61.109375 11.839844 61.140625 11.871094 61.175781 11.902344 Z M 52.632812 5.835938 C 52.523438 5.800781 52.4375 5.777344 52.421875 5.777344 C 52.394531 5.777344 52.492188 5.820312 52.652344 5.882812 C 52.667969 5.914062 52.6875 5.949219 52.710938 5.984375 C 52.480469 5.910156 52.265625 5.839844 52.0625 5.769531 C 51.988281 5.742188 51.914062 5.71875 51.839844 5.691406 C 51.863281 5.644531 51.792969 5.554688 51.613281 5.414062 C 51.777344 5.476562 51.945312 5.535156 52.109375 5.597656 C 52.277344 5.664062 52.449219 5.722656 52.621094 5.78125 C 52.621094 5.796875 52.625 5.816406 52.632812 5.835938 Z M 54.828125 7.007812 C 54.792969 6.992188 54.804688 7.015625 54.824219 7.042969 C 54.613281 6.933594 54.40625 6.820312 54.195312 6.714844 C 54.371094 6.792969 54.546875 6.871094 54.726562 6.953125 C 54.8125 6.992188 54.890625 7.035156 54.96875 7.078125 C 54.921875 7.054688 54.875 7.03125 54.828125 7.007812 Z M 53.300781 6.238281 C 53.324219 6.226562 53.351562 6.222656 53.386719 6.21875 C 53.453125 6.253906 53.519531 6.289062 53.589844 6.320312 C 53.863281 6.457031 54.195312 6.621094 54.261719 6.667969 C 54.351562 6.730469 53.96875 6.546875 53.71875 6.429688 C 53.574219 6.363281 53.4375 6.300781 53.300781 6.238281 Z M 53.945312 6.398438 C 54.046875 6.460938 53.820312 6.355469 53.597656 6.25 C 53.660156 6.269531 53.734375 6.292969 53.816406 6.324219 C 53.875 6.355469 53.921875 6.382812 53.945312 6.398438 Z M 45.285156 3.777344 C 45.300781 3.777344 45.316406 3.773438 45.335938 3.773438 C 45.601562 3.757812 45.941406 3.792969 46.410156 3.875 C 46.039062 3.832031 45.660156 3.800781 45.285156 3.777344 Z M 35.691406 5.726562 L 35.101562 5.882812 C 35.042969 5.898438 34.980469 5.90625 34.957031 5.902344 C 34.9375 5.898438 34.949219 5.878906 34.976562 5.867188 C 35.097656 5.828125 35.292969 5.761719 35.351562 5.753906 C 35.492188 5.730469 35.582031 5.734375 35.691406 5.726562 Z M 30.714844 8.425781 C 30.714844 8.425781 30.71875 8.425781 30.71875 8.425781 C 30.914062 8.277344 31.109375 8.132812 31.320312 8.003906 C 31.171875 8.089844 31.027344 8.1875 30.886719 8.285156 C 31.183594 8.046875 31.515625 7.816406 32.042969 7.496094 C 32.320312 7.335938 32.546875 7.152344 32.734375 7.050781 C 33.0625 6.839844 33.488281 6.632812 34.113281 6.382812 C 34.90625 6.085938 35.441406 5.929688 35.738281 5.71875 C 35.984375 5.617188 36.226562 5.523438 36.464844 5.425781 C 36.710938 5.355469 36.953125 5.285156 37.195312 5.214844 C 37.675781 5.066406 38.140625 4.925781 38.589844 4.785156 C 38.90625 4.730469 39.207031 4.660156 39.507812 4.59375 C 39.519531 4.589844 39.53125 4.589844 39.546875 4.589844 C 39.773438 4.554688 39.992188 4.519531 40.097656 4.492188 C 40.078125 4.488281 39.957031 4.5 39.808594 4.523438 C 40.128906 4.449219 40.441406 4.378906 40.742188 4.316406 C 40.835938 4.304688 40.933594 4.292969 41.039062 4.277344 C 41.316406 4.238281 41.632812 4.1875 41.960938 4.179688 C 42.332031 4.160156 42.699219 4.140625 43.066406 4.121094 C 43.222656 4.121094 43.3125 4.117188 43.351562 4.105469 C 43.4375 4.101562 43.523438 4.09375 43.609375 4.089844 C 43.886719 4.066406 44.160156 4.082031 44.433594 4.09375 C 44.707031 4.105469 44.976562 4.117188 45.25 4.128906 L 46.136719 4.171875 C 46.433594 4.183594 46.722656 4.25 47.015625 4.285156 C 47.601562 4.382812 48.1875 4.445312 48.753906 4.574219 C 49.355469 4.742188 49.960938 4.882812 50.558594 5.058594 C 50.59375 5.09375 50.667969 5.144531 50.785156 5.21875 C 50.9375 5.3125 50.816406 5.300781 50.632812 5.242188 C 49.605469 4.871094 48.515625 4.726562 47.441406 4.5 C 46.703125 4.421875 45.933594 4.328125 45.40625 4.3125 C 45.375 4.316406 45.34375 4.316406 45.3125 4.320312 C 44.855469 4.292969 44.398438 4.273438 43.933594 4.273438 C 38.878906 4.273438 34.207031 5.921875 30.421875 8.707031 C 30.519531 8.613281 30.617188 8.519531 30.714844 8.425781 Z M 21.125 24.554688 C 21.117188 24.625 21.105469 24.695312 21.097656 24.769531 C 21.097656 24.765625 21.097656 24.761719 21.097656 24.757812 C 21.101562 24.707031 21.113281 24.625 21.125 24.554688 Z M 21.1875 25.078125 C 21.171875 25.113281 21.15625 25.144531 21.140625 25.179688 C 21.113281 25.1875 21.097656 25.128906 21.09375 25.015625 C 21.113281 24.796875 21.140625 24.582031 21.167969 24.363281 C 21.214844 24.25 21.25 24.257812 21.261719 24.375 C 21.234375 24.609375 21.207031 24.84375 21.1875 25.078125 Z M 62.027344 12.246094 C 62.402344 12.726562 62.785156 13.238281 63.164062 13.753906 L 63.371094 14.042969 L 63.554688 14.347656 L 63.796875 14.753906 C 63.5 14.414062 63.179688 13.957031 62.699219 13.316406 C 62.445312 13 62.230469 12.769531 61.984375 12.46875 C 61.960938 12.4375 61.9375 12.40625 61.914062 12.375 C 61.886719 12.339844 61.855469 12.308594 61.824219 12.273438 C 61.71875 12.140625 61.609375 11.992188 61.484375 11.816406 C 61.492188 11.816406 61.5 11.808594 61.515625 11.816406 C 61.585938 11.859375 61.632812 11.867188 61.652344 11.839844 C 61.777344 11.972656 61.90625 12.113281 62.027344 12.246094 Z M 58.203125 8.5625 L 58.894531 9.09375 C 59.414062 9.527344 59.914062 9.988281 60.390625 10.46875 C 60.648438 10.761719 60.910156 11.082031 61.179688 11.429688 C 61.269531 11.542969 61.363281 11.652344 61.445312 11.773438 C 61.417969 11.765625 61.382812 11.746094 61.34375 11.722656 C 61.304688 11.679688 61.269531 11.640625 61.234375 11.597656 C 60.375 10.554688 59.34375 9.609375 58.230469 8.734375 C 58.265625 8.726562 58.253906 8.679688 58.179688 8.558594 C 58.066406 8.5 57.972656 8.472656 57.980469 8.539062 C 57.566406 8.21875 57.140625 7.910156 56.707031 7.609375 L 56.289062 7.351562 C 56.285156 7.34375 56.28125 7.332031 56.273438 7.320312 C 56.210938 7.234375 56.140625 7.152344 56.070312 7.074219 C 56.78125 7.503906 57.472656 7.972656 58.128906 8.480469 C 58.15625 8.507812 58.179688 8.53125 58.203125 8.5625 Z M 52.929688 5.472656 C 53.023438 5.539062 53.09375 5.59375 53.109375 5.621094 C 53.117188 5.632812 53.125 5.644531 53.132812 5.65625 C 52.742188 5.488281 52.335938 5.347656 51.933594 5.195312 C 51.371094 4.988281 50.8125 4.765625 50.222656 4.636719 C 49.917969 4.546875 49.609375 4.464844 49.296875 4.386719 C 49.316406 4.351562 49.398438 4.339844 49.53125 4.351562 C 50.691406 4.636719 51.828125 5.015625 52.929688 5.472656 Z M 25.789062 41.609375 C 25.765625 41.589844 25.75 41.585938 25.71875 41.554688 C 25.699219 41.523438 25.65625 41.460938 25.621094 41.414062 C 25.644531 41.429688 25.664062 41.433594 25.691406 41.46875 C 25.714844 41.5 25.757812 41.558594 25.789062 41.609375 Z M 29.054688 44.515625 L 28.800781 44.28125 C 28.441406 43.953125 28.085938 43.628906 27.730469 43.300781 C 27.714844 43.285156 27.699219 43.269531 27.683594 43.253906 C 27.722656 43.277344 27.757812 43.296875 27.796875 43.324219 C 28.21875 43.742188 28.652344 44.148438 29.101562 44.535156 C 29.085938 44.527344 29.070312 44.523438 29.054688 44.515625 Z M 66.386719 20.675781 C 66.507812 21.175781 66.644531 21.75 66.632812 21.820312 C 66.621094 21.917969 66.417969 21.132812 66.277344 20.628906 C 66.222656 20.441406 66.21875 20.445312 66.242188 20.539062 C 66.378906 21.066406 66.507812 21.578125 66.640625 22.082031 L 66.734375 22.457031 L 66.792969 22.835938 C 66.832031 23.089844 66.871094 23.335938 66.910156 23.585938 C 66.984375 23.789062 67.019531 23.894531 67.074219 24.15625 C 67.097656 24.285156 67.125 24.457031 67.171875 24.699219 C 67.179688 24.789062 67.1875 24.890625 67.195312 25.003906 C 67.140625 24.945312 67.082031 24.910156 67.023438 24.90625 C 66.9375 24.902344 66.851562 25.066406 66.769531 25.523438 C 66.757812 25.597656 66.746094 25.671875 66.734375 25.746094 C 66.386719 20.003906 63.917969 14.839844 60.113281 11.015625 C 60.324219 11.171875 60.550781 11.351562 60.804688 11.570312 C 60.972656 11.75 61.144531 11.9375 61.324219 12.136719 C 61.511719 12.339844 61.753906 12.613281 61.679688 12.496094 C 61.96875 12.851562 62.285156 13.257812 62.640625 13.753906 C 62.929688 14.242188 63.179688 14.582031 63.273438 14.59375 C 63.292969 14.59375 63.3125 14.605469 63.335938 14.621094 C 63.382812 14.691406 63.425781 14.753906 63.464844 14.800781 C 63.582031 14.964844 63.730469 15.183594 63.902344 15.457031 C 64.070312 15.734375 64.296875 16.046875 64.46875 16.441406 C 64.65625 16.828125 64.84375 17.214844 65.035156 17.601562 C 65.125 17.792969 65.226562 17.984375 65.308594 18.179688 L 65.535156 18.78125 C 65.625 19.019531 65.671875 19.125 65.675781 19.105469 C 65.683594 19.085938 65.632812 18.925781 65.554688 18.707031 C 65.53125 18.640625 65.503906 18.5625 65.480469 18.496094 L 65.34375 18.128906 C 65.296875 18.011719 65.234375 17.898438 65.179688 17.78125 C 65.066406 17.550781 64.957031 17.320312 64.84375 17.089844 C 64.734375 16.859375 64.625 16.628906 64.511719 16.402344 L 64.347656 16.058594 L 64.152344 15.734375 C 64.042969 15.546875 63.933594 15.363281 63.824219 15.179688 C 63.871094 15.242188 63.917969 15.308594 63.96875 15.378906 C 64.1875 15.652344 64.296875 15.898438 64.484375 16.191406 C 64.625 16.449219 64.792969 16.765625 64.953125 17.0625 C 65.273438 17.589844 65.511719 18.601562 65.714844 18.929688 C 65.738281 18.972656 65.761719 19.007812 65.785156 19.039062 L 65.824219 19.140625 C 65.816406 19.113281 65.808594 19.089844 65.800781 19.0625 C 65.847656 19.128906 65.894531 19.175781 65.933594 19.21875 C 65.941406 19.242188 65.949219 19.261719 65.957031 19.285156 C 66.113281 19.746094 66.292969 20.199219 66.386719 20.675781 Z M 30.378906 52.078125 C 30.289062 52.078125 29.90625 51.894531 29.59375 51.703125 C 29.257812 51.496094 29.0625 51.339844 29.136719 51.332031 C 29.203125 51.328125 29.59375 51.515625 29.9375 51.722656 C 30.28125 51.925781 30.472656 52.078125 30.378906 52.078125 Z M 19.179688 17.4375 C 19.136719 17.554688 19.046875 17.757812 18.988281 17.871094 C 18.933594 17.984375 18.863281 18.085938 18.835938 18.101562 C 18.773438 18.140625 18.8125 17.957031 18.914062 17.675781 C 18.953125 17.558594 19.039062 17.351562 19.097656 17.242188 C 19.152344 17.132812 19.195312 17.097656 19.242188 17.03125 C 19.285156 17.042969 19.285156 17.136719 19.179688 17.4375 Z M 19.042969 32.640625 C 19.003906 32.660156 18.917969 32.417969 18.851562 32.105469 C 18.789062 31.808594 18.738281 31.386719 18.753906 31.277344 C 18.769531 31.160156 18.796875 31.089844 18.8125 31.03125 C 18.859375 31.097656 18.886719 31.125 18.914062 31.175781 C 18.96875 31.265625 19.066406 31.746094 19.085938 31.992188 C 19.121094 32.410156 19.101562 32.605469 19.042969 32.640625 Z M 18.390625 20.875 C 18.367188 21.039062 18.332031 21.269531 18.308594 21.457031 C 18.277344 21.550781 18.253906 21.636719 18.242188 21.671875 C 18.226562 21.707031 18.210938 21.722656 18.210938 21.691406 C 18.222656 21.316406 18.179688 20.960938 18.363281 20.308594 C 18.394531 20.1875 18.464844 19.96875 18.507812 19.859375 C 18.546875 19.765625 18.609375 19.683594 18.601562 19.734375 C 18.535156 20.09375 18.464844 20.476562 18.390625 20.875 Z M 18.414062 30.0625 C 18.40625 30.136719 18.375 30.148438 18.359375 30.074219 C 18.214844 29.234375 17.988281 28.347656 17.933594 27.597656 C 17.921875 27.503906 17.921875 27.304688 17.917969 27.148438 C 17.910156 26.867188 17.957031 26.394531 17.992188 26.371094 C 18.007812 26.398438 18.035156 26.371094 18.046875 26.464844 C 18.140625 27.378906 18.195312 28.4375 18.402344 29.648438 C 18.417969 29.746094 18.421875 29.988281 18.414062 30.0625 Z M 68.394531 30.171875 L 68.210938 28.742188 C 68.140625 28.265625 68.109375 27.703125 68.003906 27.339844 C 67.917969 27.089844 67.839844 26.808594 67.765625 26.492188 C 67.59375 25.789062 67.410156 25.242188 67.210938 25.019531 C 67.160156 24.277344 67.03125 23.59375 66.949219 22.921875 C 66.902344 22.570312 66.910156 22.523438 66.964844 22.800781 C 67.015625 23.074219 67.078125 23.421875 67.144531 23.785156 C 67.109375 23.496094 67.070312 23.207031 67.03125 22.921875 C 66.992188 22.640625 66.964844 22.359375 66.894531 22.105469 C 66.710938 21.339844 66.554688 20.652344 66.34375 20.042969 C 66.257812 19.839844 66.160156 19.597656 66.0625 19.339844 C 66.089844 19.367188 66.117188 19.394531 66.144531 19.429688 C 66.273438 19.582031 66.414062 19.738281 66.542969 19.949219 C 66.605469 20.054688 66.683594 20.28125 66.765625 20.636719 L 66.988281 21.636719 C 67.191406 22.460938 67.238281 23.066406 67.378906 23.519531 C 67.449219 23.804688 67.539062 24.171875 67.617188 24.492188 C 67.6875 24.765625 67.742188 24.84375 67.796875 24.851562 C 67.917969 24.871094 67.957031 24.40625 67.910156 23.457031 L 67.917969 23.492188 C 67.851562 23.113281 67.792969 22.703125 67.757812 22.234375 C 67.519531 20.960938 67.324219 19.761719 66.878906 18.65625 C 66.671875 18.101562 66.511719 17.535156 66.265625 17.003906 C 66.019531 16.472656 65.769531 15.941406 65.519531 15.40625 C 65.105469 14.523438 64.554688 13.71875 64.085938 12.902344 C 63.535156 12.136719 62.988281 11.386719 62.417969 10.695312 C 61.617188 9.835938 60.808594 8.878906 59.808594 7.953125 C 59.054688 7.140625 58.210938 6.582031 57.617188 6.195312 C 57.488281 6.109375 57.269531 5.964844 57.097656 5.84375 C 56.816406 5.683594 56.527344 5.46875 56.214844 5.191406 C 55.984375 4.984375 55.648438 4.746094 55.550781 4.730469 C 55.242188 4.644531 54.464844 4.308594 53.644531 3.929688 L 53.449219 3.84375 C 53.105469 3.683594 52.742188 3.492188 52.316406 3.3125 C 52.109375 3.21875 51.789062 3.089844 51.65625 3.054688 C 50.671875 2.730469 49.332031 2.449219 48.289062 2.25 C 47.8125 2.191406 47.273438 2.125 46.707031 2.058594 C 46.144531 1.980469 45.5625 1.890625 44.980469 1.894531 C 44.699219 1.882812 44.210938 1.796875 44.203125 1.753906 C 44.167969 1.566406 44.570312 1.339844 46.320312 1.554688 L 47.015625 1.660156 C 47.8125 1.773438 48.378906 1.816406 48.746094 1.851562 C 49.0625 1.863281 49.316406 1.851562 49.945312 1.984375 C 50.808594 2.128906 51.570312 2.421875 52.429688 2.675781 C 53.199219 2.90625 53.617188 3.050781 54.035156 3.160156 C 54.191406 3.203125 54.109375 3.105469 53.894531 2.949219 C 53.589844 2.714844 53.183594 2.457031 52.640625 2.246094 C 51.144531 1.585938 49.554688 1.066406 48.023438 0.746094 C 46.1875 0.386719 44.285156 0.179688 42.394531 0.226562 C 40.757812 0.21875 39.097656 0.4375 37.703125 0.726562 C 37.28125 0.832031 36.777344 0.960938 36.300781 1.082031 C 35.574219 1.234375 34.867188 1.472656 34.164062 1.738281 C 33.746094 1.886719 33.546875 1.90625 33.304688 1.945312 C 33.117188 1.976562 32.75 2.089844 32.640625 2.171875 C 32.558594 2.226562 32.394531 2.308594 32.386719 2.332031 C 32.339844 2.503906 31.640625 2.871094 30.738281 3.3125 C 29.996094 3.738281 29.386719 4.167969 28.753906 4.582031 C 28.3125 4.867188 27.910156 5.203125 27.316406 5.542969 C 26.808594 5.855469 26.421875 6.128906 26.175781 6.410156 C 26.011719 6.582031 25.925781 6.703125 25.84375 6.816406 C 25.734375 6.96875 25.5625 7.167969 25.207031 7.46875 C 24.230469 8.269531 23.726562 8.992188 23.410156 9.453125 C 23.304688 9.609375 23.058594 9.898438 22.886719 10.175781 C 22.355469 10.992188 21.785156 11.734375 21.3125 12.652344 C 21.078125 13.066406 20.828125 13.5 20.574219 13.941406 C 20.359375 14.402344 20.140625 14.871094 19.921875 15.335938 C 19.898438 15.394531 19.742188 15.636719 19.695312 15.683594 C 19.542969 15.855469 19.535156 15.757812 19.582031 15.578125 C 19.695312 15.140625 19.914062 14.542969 20.183594 13.875 C 20.3125 13.582031 20.550781 13.246094 20.824219 12.851562 C 21.550781 11.839844 21.542969 11.832031 21.523438 11.609375 C 21.519531 11.578125 21.515625 11.550781 21.5625 11.46875 C 21.609375 11.390625 21.71875 11.238281 21.808594 11.125 L 22.328125 10.542969 C 22.664062 10.160156 22.910156 9.804688 22.800781 9.851562 C 22.71875 9.890625 22.605469 9.960938 22.5 10.023438 C 22.359375 10.105469 22.316406 10.074219 22.5 9.792969 C 22.953125 9.121094 23.515625 8.507812 24.039062 7.835938 C 24.101562 7.769531 24.285156 7.570312 24.414062 7.484375 C 24.546875 7.398438 24.632812 7.339844 24.757812 7.257812 C 24.875 7.175781 25.042969 7.058594 25.132812 6.980469 C 25.226562 6.894531 25.300781 6.800781 25.304688 6.777344 C 25.316406 6.6875 25.28125 6.632812 25.28125 6.554688 C 25.273438 6.472656 25.480469 6.234375 25.917969 5.863281 C 26.5 5.398438 26.996094 5.066406 27.316406 4.753906 C 27.488281 4.59375 27.84375 4.316406 28.164062 4.089844 C 28.632812 3.800781 29.144531 3.488281 29.609375 3.203125 C 30.558594 2.617188 30.644531 2.480469 29.847656 2.753906 C 29.621094 2.84375 29.367188 2.941406 29.113281 3.039062 C 28.652344 3.238281 28.066406 3.46875 27.496094 3.855469 C 27.183594 4.066406 26.859375 4.285156 26.5625 4.484375 C 25.492188 5.183594 24.550781 6.082031 23.585938 6.910156 C 22.710938 7.835938 21.8125 8.710938 21.144531 9.683594 C 20.820312 10.148438 20.34375 10.644531 20.027344 11.183594 C 19.578125 11.910156 19.074219 12.609375 18.695312 13.351562 C 18.328125 14.097656 17.949219 14.8125 17.664062 15.511719 C 17.328125 16.496094 16.878906 17.46875 16.644531 18.511719 C 16.402344 19.46875 16.117188 20.414062 16.011719 21.371094 C 15.859375 22.316406 15.730469 23.238281 15.738281 24.113281 C 15.714844 24.976562 15.675781 25.851562 15.769531 26.742188 C 15.828125 27.632812 15.867188 28.535156 16.042969 29.433594 C 16.160156 30.0625 16.222656 30.722656 16.378906 31.382812 C 16.542969 32.035156 16.710938 32.707031 16.878906 33.382812 C 16.992188 33.875 17.167969 34.261719 17.304688 34.574219 C 17.480469 34.949219 17.6875 35.441406 17.894531 35.949219 C 18.464844 37.066406 18.984375 38.242188 19.71875 39.289062 C 19.871094 39.527344 20.035156 39.789062 20.203125 40.078125 C 20.707031 40.964844 21.183594 41.4375 21.554688 41.863281 C 21.816406 42.15625 22.183594 42.59375 22.515625 42.882812 C 22.882812 43.214844 23.363281 43.859375 23.785156 44.296875 C 24.019531 44.5 24.25 44.707031 24.453125 44.890625 C 25.410156 45.765625 26.492188 46.492188 27.371094 47.035156 C 27.964844 47.390625 28.710938 47.75 29.40625 48.140625 C 29.597656 48.253906 29.898438 48.433594 30.171875 48.558594 C 30.773438 48.707031 31.550781 49.054688 32.382812 49.304688 C 33.042969 49.492188 33.714844 49.683594 34.390625 49.875 C 35.074219 50 35.761719 50.125 36.4375 50.25 C 37.515625 50.382812 38.675781 50.484375 39.359375 50.40625 C 39.460938 50.390625 39.585938 50.375 39.761719 50.378906 C 40.699219 50.382812 41.359375 50.363281 42.128906 50.257812 C 42.132812 50.261719 42.140625 50.261719 42.144531 50.261719 C 42.792969 50.289062 43.445312 50.34375 44.09375 50.347656 C 44.746094 50.316406 45.394531 50.285156 46.042969 50.257812 C 46.101562 50.25 46.160156 50.242188 46.21875 50.234375 C 45.695312 50.394531 45.066406 50.550781 44.179688 50.699219 C 43.496094 50.777344 42.953125 50.839844 42.4375 50.898438 C 42.136719 50.933594 41.824219 50.972656 41.5 51.011719 C 41.175781 51.011719 40.835938 51.011719 40.480469 51.011719 C 39.773438 51 38.992188 51.007812 38.152344 50.847656 C 37.65625 50.769531 37.183594 50.714844 36.816406 50.6875 C 36.292969 50.632812 35.9375 50.589844 35.125 50.375 C 34.9375 50.324219 34.789062 50.316406 34.730469 50.324219 C 34.527344 50.363281 34.117188 50.308594 33.585938 50.128906 C 33.242188 50.023438 32.871094 49.910156 32.660156 49.878906 C 32.039062 49.8125 31.078125 49.386719 30.117188 48.964844 C 29.292969 48.640625 28.53125 48.113281 27.71875 47.683594 C 26.933594 47.21875 26.21875 46.664062 25.507812 46.210938 C 25.351562 46.109375 25.171875 45.9375 25.011719 45.800781 C 24.277344 45.152344 23.484375 44.546875 22.828125 43.804688 C 22.535156 43.5 22.253906 43.230469 21.9375 42.867188 C 21.246094 41.992188 20.714844 41.324219 20.171875 40.636719 C 19.515625 39.617188 18.769531 38.621094 18.246094 37.519531 C 18.117188 37.28125 17.996094 37.066406 17.890625 36.890625 C 17.515625 36.335938 17.226562 35.613281 16.90625 34.835938 C 16.554688 34.066406 16.296875 33.207031 16.0625 32.347656 C 15.75 31.398438 15.585938 30.335938 15.414062 29.414062 C 15.28125 28.820312 15.1875 28.199219 15.15625 27.554688 C 15.105469 26.914062 15.046875 26.257812 15.015625 25.59375 C 15.058594 24.269531 15.03125 22.917969 15.230469 21.660156 C 15.25 21.519531 15.273438 21.351562 15.292969 21.199219 C 15.40625 19.976562 15.773438 18.832031 16.046875 17.597656 C 16.285156 16.878906 16.414062 16.410156 16.425781 16.148438 C 16.441406 15.835938 16.457031 15.527344 16.445312 15.277344 C 16.4375 15.160156 16.296875 15.347656 16.09375 15.730469 C 15.945312 16.007812 15.769531 16.363281 15.621094 16.695312 C 14.898438 18.449219 14.371094 20.277344 14.113281 22.058594 C 13.914062 22.949219 13.914062 23.925781 13.820312 24.875 C 13.730469 25.636719 13.777344 26.390625 13.789062 27.132812 C 13.8125 27.875 13.8125 28.609375 13.933594 29.328125 C 14.148438 31.300781 14.554688 33.3125 15.203125 35.226562 C 15.347656 35.660156 15.5 36.109375 15.652344 36.5625 C 15.707031 36.738281 15.765625 36.9375 15.84375 37.117188 C 15.992188 37.46875 16.082031 37.773438 16.054688 37.84375 C 16.003906 37.988281 16.0625 38.15625 16.390625 38.824219 C 16.503906 39.046875 16.601562 39.246094 16.714844 39.46875 C 16.839844 39.703125 16.996094 40 17.03125 40.140625 C 17.0625 40.265625 17.0625 40.332031 17.113281 40.488281 C 17.144531 40.574219 17.253906 40.808594 17.332031 40.949219 C 17.410156 41.09375 17.519531 41.261719 17.570312 41.324219 C 17.65625 41.429688 17.71875 41.484375 17.769531 41.511719 C 18.050781 41.699219 18.589844 42.285156 19.527344 43.515625 C 19.867188 43.988281 20.203125 44.316406 20.585938 44.714844 C 20.792969 44.945312 21.035156 45.214844 21.273438 45.476562 C 21.503906 45.746094 21.894531 46.25 22.089844 46.492188 C 22.140625 46.5625 22.105469 46.582031 22.035156 46.519531 C 21.792969 46.3125 21.539062 46.050781 21.304688 45.769531 C 20.980469 45.394531 20.726562 45.128906 20.5625 45.007812 C 20.46875 44.9375 20.394531 44.890625 20.320312 44.84375 C 20.171875 44.742188 19.863281 44.492188 19.496094 43.960938 C 19.332031 43.730469 19.167969 43.507812 19.019531 43.296875 C 18.761719 42.949219 18.738281 43.0625 18.972656 43.46875 C 19.160156 43.792969 19.371094 44.140625 19.601562 44.429688 C 19.839844 44.683594 20.042969 44.902344 20.261719 45.136719 L 21.328125 46.269531 C 21.691406 46.636719 22.097656 46.964844 22.484375 47.316406 C 22.550781 47.375 22.722656 47.574219 22.828125 47.699219 C 22.871094 47.746094 22.898438 47.796875 22.875 47.785156 C 22.792969 47.742188 22.726562 47.71875 22.582031 47.605469 C 21.976562 47.097656 21.292969 46.589844 20.746094 46.007812 C 20.507812 45.777344 20.304688 45.59375 20.121094 45.433594 C 20.058594 45.382812 20.046875 45.417969 20.105469 45.511719 C 20.203125 45.664062 20.363281 45.910156 20.511719 46.089844 C 21.195312 46.996094 22.046875 47.707031 22.769531 48.410156 C 24.648438 49.996094 26.765625 51.554688 29.046875 52.644531 C 32.488281 54.371094 36.15625 55.324219 39.714844 55.546875 C 41.453125 55.683594 43.023438 55.566406 44.710938 55.414062 C 46.996094 55.128906 49.050781 54.648438 51 53.902344 C 51.597656 53.671875 52.171875 53.449219 52.726562 53.214844 C 53.269531 52.9375 53.804688 52.660156 54.34375 52.382812 C 54.890625 52.121094 55.421875 51.8125 55.949219 51.460938 C 56.480469 51.121094 57.042969 50.789062 57.609375 50.410156 C 57.738281 50.308594 57.84375 50.226562 57.957031 50.136719 C 60.03125 48.609375 61.792969 46.726562 63.359375 44.765625 C 64.554688 43.121094 65.613281 41.453125 66.445312 39.589844 C 67.1875 38.054688 67.578125 36.644531 67.96875 35.230469 C 68.167969 34.257812 68.289062 33.46875 68.363281 32.765625 C 68.378906 32.144531 68.394531 31.484375 68.414062 30.863281 C 68.417969 30.597656 68.402344 30.390625 68.394531 30.171875 " fill-opacity="1" fill-rule="nonzero"/></g><path fill="rgb(93.328857%, 42.349243%, 30.198669%)" d="M 30.191406 48.570312 L 30.207031 48.574219 L 30.171875 48.558594 L 30.160156 48.550781 L 30.191406 48.570312 " fill-opacity="1" fill-rule="nonzero"/><path fill="rgb(93.328857%, 42.349243%, 30.198669%)" d="M 29.96875 48.574219 C 30.066406 48.644531 30.207031 48.746094 30.320312 48.804688 C 30.660156 48.992188 30.953125 49.109375 30.890625 49.035156 C 30.820312 48.957031 30.597656 48.820312 30.378906 48.6875 L 30.191406 48.570312 C 30.109375 48.558594 30.023438 48.542969 29.949219 48.53125 C 29.929688 48.527344 29.925781 48.542969 29.96875 48.574219 " fill-opacity="1" fill-rule="nonzero"/><path fill="rgb(93.328857%, 42.349243%, 30.198669%)" d="M 16.195312 39.25 C 16.183594 39.238281 16.203125 39.3125 16.210938 39.347656 C 16.246094 39.429688 16.296875 39.542969 16.316406 39.585938 C 16.402344 39.730469 16.390625 39.660156 16.285156 39.410156 C 16.257812 39.347656 16.210938 39.265625 16.195312 39.25 " fill-opacity="1" fill-rule="nonzero"/><path fill="rgb(93.328857%, 42.349243%, 30.198669%)" d="M 24.019531 8.3125 L 24.109375 8.199219 L 23.957031 8.339844 Z M 24.019531 8.3125 " fill-opacity="1" fill-rule="nonzero"/><path fill="rgb(93.328857%, 42.349243%, 30.198669%)" d="M 62.945312 13.328125 L 62.847656 13.175781 L 62.855469 13.222656 Z M 62.945312 13.328125 " fill-opacity="1" fill-rule="nonzero"/><path fill="rgb(93.328857%, 42.349243%, 30.198669%)" d="M 50.390625 5.109375 C 49.710938 4.9375 49.039062 4.722656 48.347656 4.585938 C 47.648438 4.476562 46.949219 4.367188 46.25 4.257812 C 45.539062 4.21875 44.824219 4.183594 44.109375 4.144531 C 44.011719 4.144531 43.910156 4.152344 43.808594 4.15625 C 44.417969 4.164062 45.019531 4.214844 45.613281 4.25 C 47.203125 4.371094 48.816406 4.675781 50.390625 5.109375 " fill-opacity="1" fill-rule="nonzero"/><path fill="rgb(93.328857%, 42.349243%, 30.198669%)" d="M 43.746094 4.15625 C 43.152344 4.175781 42.554688 4.214844 41.957031 4.242188 C 42.554688 4.214844 43.152344 4.1875 43.746094 4.15625 " fill-opacity="1" fill-rule="nonzero"/><g clip-path="url(#clip-1)"><path stroke-linecap="butt" transform="matrix(0.289988, 0, 0, 0.292969, 31.911849, 18.743872)" fill="none" stroke-linejoin="round" d="M 2.001253 35.994257 L 2.001253 11.994253 C 2.001253 11.740919 2.095545 11.487586 2.297601 11.287586 C 2.486187 11.100919 2.742124 10.994252 2.998061 10.994252 L 61.001567 10.994252 C 61.257504 10.994252 61.513441 11.100919 61.702027 11.287586 C 61.904083 11.487586 61.998376 11.740919 61.998376 11.994253 L 61.998376 35.994257 " stroke="rgb(20.388794%, 18.818665%, 23.919678%)" stroke-width="2" stroke-opacity="1" stroke-miterlimit="10"/></g><path fill="rgb(34.118652%, 86.268616%, 94.898987%)" d="M 33.652344 24.894531 L 34.8125 24.894531 L 34.8125 26.066406 L 33.652344 26.066406 Z M 33.652344 24.894531 " fill-opacity="1" fill-rule="nonzero"/><path fill="rgb(34.118652%, 86.268616%, 94.898987%)" d="M 35.390625 24.894531 L 36.550781 24.894531 L 36.550781 26.066406 L 35.390625 26.066406 Z M 35.390625 24.894531 " fill-opacity="1" fill-rule="nonzero"/><path fill="rgb(34.118652%, 86.268616%, 94.898987%)" d="M 37.132812 24.894531 L 38.292969 24.894531 L 38.292969 26.066406 L 37.132812 26.066406 Z M 37.132812 24.894531 " fill-opacity="1" fill-rule="nonzero"/><path fill="rgb(34.118652%, 86.268616%, 94.898987%)" d="M 38.871094 24.894531 L 40.03125 24.894531 L 40.03125 26.066406 L 38.871094 26.066406 Z M 38.871094 24.894531 " fill-opacity="1" fill-rule="nonzero"/><path fill="rgb(34.118652%, 86.268616%, 94.898987%)" d="M 40.613281 24.894531 L 41.769531 24.894531 L 41.769531 26.066406 L 40.613281 26.066406 Z M 40.613281 24.894531 " fill-opacity="1" fill-rule="nonzero"/><path fill="rgb(34.118652%, 86.268616%, 94.898987%)" d="M 42.351562 24.894531 L 43.511719 24.894531 L 43.511719 26.066406 L 42.351562 26.066406 Z M 42.351562 24.894531 " fill-opacity="1" fill-rule="nonzero"/><path fill="rgb(34.118652%, 86.268616%, 94.898987%)" d="M 44.089844 24.894531 L 45.25 24.894531 L 45.25 26.066406 L 44.089844 26.066406 Z M 44.089844 24.894531 " fill-opacity="1" fill-rule="nonzero"/><path fill="rgb(34.118652%, 86.268616%, 94.898987%)" d="M 45.832031 24.894531 L 46.992188 24.894531 L 46.992188 26.066406 L 45.832031 26.066406 Z M 45.832031 24.894531 " fill-opacity="1" fill-rule="nonzero"/><path fill="rgb(34.118652%, 86.268616%, 94.898987%)" d="M 47.570312 24.894531 L 48.730469 24.894531 L 48.730469 26.066406 L 47.570312 26.066406 Z M 47.570312 24.894531 " fill-opacity="1" fill-rule="nonzero"/><path fill="rgb(34.118652%, 86.268616%, 94.898987%)" d="M 33.652344 26.652344 L 34.8125 26.652344 L 34.8125 27.824219 L 33.652344 27.824219 Z M 33.652344 26.652344 " fill-opacity="1" fill-rule="nonzero"/><path fill="rgb(34.118652%, 86.268616%, 94.898987%)" d="M 35.390625 26.652344 L 36.550781 26.652344 L 36.550781 27.824219 L 35.390625 27.824219 Z M 35.390625 26.652344 " fill-opacity="1" fill-rule="nonzero"/><path fill="rgb(16.079712%, 19.60907%, 25.489807%)" d="M 37.132812 26.652344 L 45.25 26.652344 L 45.25 27.824219 L 37.132812 27.824219 Z M 37.132812 26.652344 " fill-opacity="1" fill-rule="nonzero"/><path fill="rgb(34.118652%, 86.268616%, 94.898987%)" d="M 45.832031 26.652344 L 46.992188 26.652344 L 46.992188 27.824219 L 45.832031 27.824219 Z M 45.832031 26.652344 " fill-opacity="1" fill-rule="nonzero"/><path fill="rgb(34.118652%, 86.268616%, 94.898987%)" d="M 47.570312 26.652344 L 48.730469 26.652344 L 48.730469 27.824219 L 47.570312 27.824219 Z M 47.570312 26.652344 " fill-opacity="1" fill-rule="nonzero"/><path fill="rgb(16.079712%, 19.60907%, 25.489807%)" d="M 34.523438 23.136719 L 35.683594 23.136719 L 35.683594 24.308594 L 34.523438 24.308594 Z M 34.523438 23.136719 " fill-opacity="1" fill-rule="nonzero"/><path fill="rgb(34.118652%, 86.268616%, 94.898987%)" d="M 36.261719 23.136719 L 37.421875 23.136719 L 37.421875 24.308594 L 36.261719 24.308594 Z M 36.261719 23.136719 " fill-opacity="1" fill-rule="nonzero"/><path fill="rgb(34.118652%, 86.268616%, 94.898987%)" d="M 38 23.136719 L 39.160156 23.136719 L 39.160156 24.308594 L 38 24.308594 Z M 38 23.136719 " fill-opacity="1" fill-rule="nonzero"/><path fill="rgb(34.118652%, 86.268616%, 94.898987%)" d="M 39.742188 23.136719 L 40.902344 23.136719 L 40.902344 24.308594 L 39.742188 24.308594 Z M 39.742188 23.136719 " fill-opacity="1" fill-rule="nonzero"/><path fill="rgb(34.118652%, 86.268616%, 94.898987%)" d="M 41.480469 23.136719 L 42.640625 23.136719 L 42.640625 24.308594 L 41.480469 24.308594 Z M 41.480469 23.136719 " fill-opacity="1" fill-rule="nonzero"/><path fill="rgb(34.118652%, 86.268616%, 94.898987%)" d="M 43.222656 23.136719 L 44.382812 23.136719 L 44.382812 24.308594 L 43.222656 24.308594 Z M 43.222656 23.136719 " fill-opacity="1" fill-rule="nonzero"/><path fill="rgb(34.118652%, 86.268616%, 94.898987%)" d="M 44.960938 23.136719 L 46.121094 23.136719 L 46.121094 24.308594 L 44.960938 24.308594 Z M 44.960938 23.136719 " fill-opacity="1" fill-rule="nonzero"/><path fill="rgb(34.118652%, 86.268616%, 94.898987%)" d="M 46.703125 23.136719 L 47.859375 23.136719 L 47.859375 24.308594 L 46.703125 24.308594 Z M 46.703125 23.136719 " fill-opacity="1" fill-rule="nonzero"/><path stroke-linecap="butt" transform="matrix(0.289988, 0, 0, 0.292969, 31.911849, 18.743872)" fill="none" stroke-linejoin="round" d="M 27.002299 34.994257 L 28.995917 34.994257 " stroke="rgb(20.388794%, 18.818665%, 23.919678%)" stroke-width="2" stroke-opacity="1" stroke-miterlimit="10"/><path stroke-linecap="butt" transform="matrix(0.289988, 0, 0, 0.292969, 31.911849, 18.743872)" fill="none" stroke-linejoin="round" d="M 31.003005 34.994257 L 32.996623 34.994257 " stroke="rgb(20.388794%, 18.818665%, 23.919678%)" stroke-width="2" stroke-opacity="1" stroke-miterlimit="10"/><path stroke-linecap="butt" transform="matrix(0.289988, 0, 0, 0.292969, 31.911849, 18.743872)" fill="none" stroke-linejoin="round" d="M 35.003711 34.994257 L 36.997329 34.994257 " stroke="rgb(20.388794%, 18.818665%, 23.919678%)" stroke-width="2" stroke-opacity="1" stroke-miterlimit="10"/><path fill="rgb(100%, 76.078796%, 32.159424%)" d="M 48.269531 27.996094 C 48.15625 27.882812 48.007812 27.824219 47.859375 27.824219 C 47.710938 27.824219 47.566406 27.882812 47.449219 27.996094 C 47.335938 28.113281 47.28125 28.261719 47.28125 28.410156 L 47.28125 27.824219 C 47.28125 27.675781 47.226562 27.527344 47.109375 27.410156 C 46.996094 27.296875 46.851562 27.238281 46.703125 27.238281 C 46.554688 27.238281 46.40625 27.296875 46.292969 27.410156 C 46.179688 27.527344 46.121094 27.675781 46.121094 27.824219 L 46.121094 27.238281 C 46.121094 27.089844 46.066406 26.941406 45.953125 26.824219 C 45.839844 26.710938 45.691406 26.652344 45.542969 26.652344 C 45.394531 26.652344 45.246094 26.710938 45.132812 26.824219 C 45.019531 26.941406 44.960938 27.089844 44.960938 27.238281 L 44.960938 27.824219 C 44.960938 27.675781 44.90625 27.527344 44.792969 27.410156 C 44.679688 27.296875 44.53125 27.238281 44.382812 27.238281 C 44.234375 27.238281 44.085938 27.296875 43.972656 27.410156 C 43.859375 27.527344 43.800781 27.675781 43.800781 27.824219 L 43.800781 30.390625 L 43.792969 30.390625 C 43.777344 30.265625 43.726562 30.144531 43.632812 30.046875 C 43.519531 29.933594 43.371094 29.875 43.222656 29.875 C 43.074219 29.875 42.925781 29.933594 42.8125 30.046875 C 42.699219 30.164062 42.640625 30.3125 42.640625 30.460938 L 42.640625 31.933594 C 42.640625 33.097656 44.089844 34.5625 44.089844 34.5625 L 44.089844 35.441406 L 47.570312 35.441406 L 47.570312 34.5625 L 48.441406 32.21875 L 48.441406 28.410156 C 48.441406 28.261719 48.382812 28.113281 48.269531 27.996094 Z M 48.269531 27.996094 " fill-opacity="1" fill-rule="nonzero"/><path stroke-linecap="butt" transform="matrix(0.289988, 0, 0, 0.292969, 31.911849, 18.743872)" fill="none" stroke-linejoin="round" d="M 44.998742 38.994258 L 44.998742 30.994256 C 44.998742 30.48759 44.810156 29.980923 44.419515 29.580923 C 44.028873 29.194256 43.516999 28.994256 43.005124 28.994256 C 42.493249 28.994256 41.981374 29.194256 41.590733 29.580923 C 41.200091 29.980923 40.998035 30.48759 40.998035 30.994256 L 40.998035 43.994259 " stroke="rgb(20.388794%, 18.818665%, 23.919678%)" stroke-width="2" stroke-opacity="1" stroke-miterlimit="10"/><path stroke-linecap="butt" transform="matrix(0.289988, 0, 0, 0.292969, 31.911849, 18.743872)" fill="none" stroke-linejoin="round" d="M 48.999448 38.994258 L 48.999448 28.994256 C 48.999448 28.487589 48.810862 27.980922 48.420221 27.580922 C 48.02958 27.194256 47.517705 26.994256 47.00583 26.994256 C 46.493955 26.994256 45.98208 27.194256 45.591439 27.580922 C 45.200798 27.980922 44.998742 28.487589 44.998742 28.994256 L 44.998742 38.994258 " stroke="rgb(20.388794%, 18.818665%, 23.919678%)" stroke-width="2" stroke-opacity="1" stroke-miterlimit="10"/><path stroke-linecap="butt" transform="matrix(0.289988, 0, 0, 0.292969, 31.911849, 18.743872)" fill="none" stroke-linejoin="round" d="M 53.000154 38.994258 L 53.000154 30.994256 C 53.000154 30.48759 52.811569 29.980923 52.407457 29.580923 C 52.016816 29.194256 51.518411 28.994256 51.006536 28.994256 C 50.494661 28.994256 49.982786 29.194256 49.592145 29.580923 C 49.201504 29.980923 48.999448 30.48759 48.999448 30.994256 L 48.999448 38.994258 " stroke="rgb(20.388794%, 18.818665%, 23.919678%)" stroke-width="2" stroke-opacity="1" stroke-miterlimit="10"/><path stroke-linecap="butt" transform="matrix(0.289988, 0, 0, 0.292969, 31.911849, 18.743872)" fill="none" stroke-linejoin="round" d="M 53.996963 56.994262 L 53.996963 53.994261 L 57.00086 45.994259 L 57.00086 32.994257 C 57.00086 32.48759 56.798804 31.980923 56.408163 31.580923 C 56.017522 31.194256 55.505647 30.994256 54.993772 30.994256 C 54.481897 30.994256 53.983493 31.194256 53.579381 31.580923 C 53.18874 31.980923 53.000154 32.48759 53.000154 32.994257 L 53.000154 38.994258 " stroke="rgb(20.388794%, 18.818665%, 23.919678%)" stroke-width="2" stroke-opacity="1" stroke-miterlimit="10"/><path stroke-linecap="butt" transform="matrix(0.289988, 0, 0, 0.292969, 31.911849, 18.743872)" fill="none" stroke-linejoin="round" d="M 40.998035 39.994258 C 40.998035 39.487591 40.80945 38.980925 40.418809 38.580925 C 40.028167 38.194258 39.516292 37.994258 39.004418 37.994258 C 38.492543 37.994258 37.980668 38.194258 37.590026 38.580925 C 37.199385 38.980925 36.997329 39.487591 36.997329 39.994258 L 36.997329 45.020926 C 36.997329 48.99426 41.994844 53.994261 41.994844 53.994261 L 41.994844 56.994262 " stroke="rgb(20.388794%, 18.818665%, 23.919678%)" stroke-width="2" stroke-opacity="1" stroke-miterlimit="10"/><g clip-path="url(#clip-2)"><path stroke-linecap="butt" transform="matrix(0.289988, 0, 0, 0.292969, 31.911849, 18.743872)" fill="none" stroke-linejoin="round" d="M 54.993772 63.994263 L 54.993772 57.994262 C 54.993772 57.740928 54.899479 57.487595 54.710894 57.287595 C 54.508838 57.100928 54.2529 56.994262 53.996963 56.994262 L 41.994844 56.994262 C 41.738907 56.994262 41.48297 57.100928 41.294384 57.287595 C 41.092328 57.487595 40.998035 57.740928 40.998035 57.994262 L 40.998035 63.994263 " stroke="rgb(20.388794%, 18.818665%, 23.919678%)" stroke-width="2" stroke-opacity="1" stroke-miterlimit="10"/></g><path stroke-linecap="butt" transform="matrix(0.289988, 0, 0, 0.292969, 31.911849, 18.743872)" fill="none" stroke-linejoin="round" d="M 44.001933 60.994262 L 45.995551 60.994262 " stroke="rgb(20.388794%, 18.818665%, 23.919678%)" stroke-width="2" stroke-opacity="1" stroke-miterlimit="10"/><path fill="rgb(100%, 76.078796%, 32.159424%)" d="M 34.113281 27.996094 C 34.226562 27.882812 34.375 27.824219 34.523438 27.824219 C 34.671875 27.824219 34.820312 27.882812 34.933594 27.996094 C 35.046875 28.113281 35.101562 28.261719 35.101562 28.410156 L 35.101562 27.824219 C 35.101562 27.675781 35.160156 27.527344 35.273438 27.410156 C 35.386719 27.296875 35.535156 27.238281 35.683594 27.238281 C 35.832031 27.238281 35.976562 27.296875 36.089844 27.410156 C 36.207031 27.527344 36.261719 27.675781 36.261719 27.824219 L 36.261719 27.238281 C 36.261719 27.089844 36.316406 26.941406 36.429688 26.824219 C 36.546875 26.710938 36.691406 26.652344 36.839844 26.652344 C 36.988281 26.652344 37.136719 26.710938 37.25 26.824219 C 37.363281 26.941406 37.421875 27.089844 37.421875 27.238281 L 37.421875 27.824219 C 37.421875 27.675781 37.476562 27.527344 37.589844 27.410156 C 37.703125 27.296875 37.851562 27.238281 38 27.238281 C 38.148438 27.238281 38.296875 27.296875 38.410156 27.410156 C 38.523438 27.527344 38.582031 27.675781 38.582031 27.824219 L 38.582031 30.390625 L 38.589844 30.390625 C 38.605469 30.265625 38.65625 30.144531 38.75 30.046875 C 38.863281 29.933594 39.011719 29.875 39.160156 29.875 C 39.308594 29.875 39.457031 29.933594 39.570312 30.046875 C 39.683594 30.164062 39.742188 30.3125 39.742188 30.460938 L 39.742188 31.933594 C 39.742188 33.097656 38.292969 34.5625 38.292969 34.5625 L 38.292969 35.441406 L 34.8125 35.441406 L 34.8125 34.5625 L 33.941406 32.21875 L 33.941406 28.410156 C 33.941406 28.261719 34 28.113281 34.113281 27.996094 Z M 34.113281 27.996094 " fill-opacity="1" fill-rule="nonzero"/><path stroke-linecap="butt" transform="matrix(0.289988, 0, 0, 0.292969, 31.911849, 18.743872)" fill="none" stroke-linejoin="round" d="M 19.000886 38.994258 L 19.000886 30.994256 C 19.000886 30.48759 19.189472 29.980923 19.580113 29.580923 C 19.970755 29.194256 20.482629 28.994256 20.994504 28.994256 C 21.506379 28.994256 22.018254 29.194256 22.408895 29.580923 C 22.799537 29.980923 23.001593 30.48759 23.001593 30.994256 L 23.001593 43.994259 " stroke="rgb(20.388794%, 18.818665%, 23.919678%)" stroke-width="2" stroke-opacity="1" stroke-miterlimit="10"/><path stroke-linecap="butt" transform="matrix(0.289988, 0, 0, 0.292969, 31.911849, 18.743872)" fill="none" stroke-linejoin="round" d="M 15.00018 38.994258 L 15.00018 28.994256 C 15.00018 28.487589 15.188766 27.980922 15.579407 27.580922 C 15.983519 27.194256 16.481923 26.994256 16.993798 26.994256 C 17.505673 26.994256 18.017548 27.194256 18.408189 27.580922 C 18.798831 27.980922 19.000886 28.487589 19.000886 28.994256 L 19.000886 38.994258 " stroke="rgb(20.388794%, 18.818665%, 23.919678%)" stroke-width="2" stroke-opacity="1" stroke-miterlimit="10"/><path stroke-linecap="butt" transform="matrix(0.289988, 0, 0, 0.292969, 31.911849, 18.743872)" fill="none" stroke-linejoin="round" d="M 10.999474 38.994258 L 10.999474 30.994256 C 10.999474 30.48759 11.20153 29.980923 11.592171 29.580923 C 11.982812 29.194256 12.494687 28.994256 13.006562 28.994256 C 13.518437 28.994256 14.016842 29.194256 14.407483 29.580923 C 14.811595 29.980923 15.00018 30.48759 15.00018 30.994256 L 15.00018 38.994258 " stroke="rgb(20.388794%, 18.818665%, 23.919678%)" stroke-width="2" stroke-opacity="1" stroke-miterlimit="10"/><path stroke-linecap="butt" transform="matrix(0.289988, 0, 0, 0.292969, 31.911849, 18.743872)" fill="none" stroke-linejoin="round" d="M 10.002665 56.994262 L 10.002665 53.994261 L 6.998768 45.994259 L 6.998768 32.994257 C 6.998768 32.48759 7.200824 31.980923 7.591465 31.580923 C 7.982106 31.194256 8.493981 30.994256 9.005856 30.994256 C 9.517731 30.994256 10.029606 31.194256 10.420247 31.580923 C 10.810888 31.980923 10.999474 32.48759 10.999474 32.994257 L 10.999474 38.994258 " stroke="rgb(20.388794%, 18.818665%, 23.919678%)" stroke-width="2" stroke-opacity="1" stroke-miterlimit="10"/><path stroke-linecap="butt" transform="matrix(0.289988, 0, 0, 0.292969, 31.911849, 18.743872)" fill="none" stroke-linejoin="round" d="M 23.001593 39.994258 C 23.001593 39.487591 23.190178 38.980925 23.580819 38.580925 C 23.971461 38.194258 24.483336 37.994258 24.995211 37.994258 C 25.507085 37.994258 26.01896 38.194258 26.409602 38.580925 C 26.800243 38.980925 27.002299 39.487591 27.002299 39.994258 L 27.002299 45.020926 C 27.002299 48.99426 22.004784 53.994261 22.004784 53.994261 L 22.004784 56.994262 " stroke="rgb(20.388794%, 18.818665%, 23.919678%)" stroke-width="2" stroke-opacity="1" stroke-miterlimit="10"/><g clip-path="url(#clip-3)"><path stroke-linecap="butt" transform="matrix(0.289988, 0, 0, 0.292969, 31.911849, 18.743872)" fill="none" stroke-linejoin="round" d="M 9.005856 63.994263 L 9.005856 57.994262 C 9.005856 57.740928 9.100149 57.487595 9.288734 57.287595 C 9.49079 57.100928 9.746728 56.994262 10.002665 56.994262 L 22.004784 56.994262 C 22.260721 56.994262 22.516659 57.100928 22.705244 57.287595 C 22.9073 57.487595 23.001593 57.740928 23.001593 57.994262 L 23.001593 63.994263 " stroke="rgb(20.388794%, 18.818665%, 23.919678%)" stroke-width="2" stroke-opacity="1" stroke-miterlimit="10"/></g><path stroke-linecap="butt" transform="matrix(0.289988, 0, 0, 0.292969, 31.911849, 18.743872)" fill="none" stroke-linejoin="round" d="M 19.997695 60.994262 L 18.004077 60.994262 " stroke="rgb(20.388794%, 18.818665%, 23.919678%)" stroke-width="2" stroke-opacity="1" stroke-miterlimit="10"/><g clip-path="url(#clip-4)"><path stroke-linecap="butt" transform="matrix(0.289988, 0, 0, 0.292969, 31.911849, 18.743872)" fill="none" stroke-linejoin="round" d="M 37.994138 -0.00574983 L 37.994138 0.99425 C 37.994138 1.51425 37.805553 2.020917 37.414911 2.407584 C 37.02427 2.807584 36.512395 2.994251 36.00052 2.994251 L 23.998402 2.994251 C 23.486527 2.994251 22.974652 3.194251 22.58401 3.580918 C 22.193369 3.980918 22.004784 4.487584 22.004784 4.994251 C 22.004784 5.514251 22.193369 6.020918 22.58401 6.407585 C 22.974652 6.807585 23.486527 6.994252 23.998402 6.994252 L 30.006196 6.994252 C 30.518071 6.994252 31.016475 7.194252 31.420587 7.580918 C 31.811229 7.980918 31.999814 8.487585 31.999814 8.994252 L 31.999814 10.994252 " stroke="rgb(20.388794%, 18.818665%, 23.919678%)" stroke-width="2" stroke-opacity="1" stroke-miterlimit="10"/></g></svg>